<?xml version="1.0" encoding="utf-8"?>
<!-- Generator: Adobe Illustrator 16.0.2, SVG Export Plug-In . SVG Version: 6.00 Build 0)  -->
<!DOCTYPE svg PUBLIC "-//W3C//DTD SVG 1.1//EN" "http://www.w3.org/Graphics/SVG/1.1/DTD/svg11.dtd">
<svg version="1.1" id="Layer_1" xmlns="http://www.w3.org/2000/svg" xmlns:xlink="http://www.w3.org/1999/xlink" x="0px" y="0px"
	 width="201.5px" height="75px" viewBox="80 0 201.5 75" enable-background="new 0 0 201.5 75" xml:space="preserve">
<rect y="-0.128" display="none" fill="#232931" width="201.5" height="75"/>
<path fill-rule="evenodd" clip-rule="evenodd" fill="#EEEEEE" d="M81.727,38.066c-0.033,0.492-0.076,0.984-0.124,1.475
	l23.874,16.102l1.184-1.811L81.727,38.066z"/>
<path fill-rule="evenodd" clip-rule="evenodd" fill="#EEEEEE" d="M81.726,38.637c-0.075,0.605-0.115,1.213-0.138,1.823
	c-0.006,0.166-0.042,0.326-0.069,0.487l23.253-18.506l-0.78-1.01L81.808,38.037C81.79,38.236,81.77,38.438,81.726,38.637z"/>
<polygon fill-rule="evenodd" clip-rule="evenodd" fill="#EEEEEE" points="80.644,69.271 80.771,8.681 82.046,8.675 82.808,69.261 
	"/>
<polygon fill-rule="evenodd" clip-rule="evenodd" fill="#1DA4B1" points="82.655,58.354 82.731,65.97 80.654,65.938 80.669,58.386 
	"/>
<polygon fill-rule="evenodd" clip-rule="evenodd" fill="#EEEEEE" points="80.654,65.01 80.658,63.886 82.71,63.886 82.721,64.946 
	"/>
<text transform="matrix(1 0 0 1 94.6807 44.2178)" fill="#EEEEEE" font-family="'Raleway-Black'" font-size="16">C U I S I N E</text>
</svg>

